# xmcd
#
# Track frame offsets:
#	150
#	19235
#	36498
#	57370
#	72728
#	87115
#	105930
#	124613
#	141985
#	162785
#	180603
#	195903
#
# Disc length: 2844 seconds
#
# Revision: 0
# Processed by: cddbd v1.5.2PL0 Copyright (c) Steve Scherf et al.
# Submitted via: dBpowerAMP V4.0
#
DISCID=a10b1a0c
DTITLE=Jose Luis Perales - Cronicas de Amor
DYEAR=1991
DGENRE=Bolero
TTITLE0=El amor
TTITLE1=Te quiero
TTITLE2=Me llamas
TTITLE3=Balada para una despedida
TTITLE4=Por amor
TTITLE5=Asi te quiero
TTITLE6=Y como es el
TTITLE7=Cuando vuelvas
TTITLE8=Quisiera decir tu nombre
TTITLE9=Si
TTITLE10=Por ti
TTITLE11=Mi soledad
EXTD=
EXTT0=
EXTT1=
EXTT2=
EXTT3=
EXTT4=
EXTT5=
EXTT6=
EXTT7=
EXTT8=
EXTT9=
EXTT10=
EXTT11=
PLAYORDER=
